<?xml version="1.0" encoding="UTF-8"?><svg xmlns="http://www.w3.org/2000/svg" xmlns:xlink="http://www.w3.org/1999/xlink" height="206.8" preserveAspectRatio="xMidYMid meet" version="1.0" viewBox="-0.0 -0.2 249.1 206.8" width="249.1" zoomAndPan="magnify"><g id="change1_1"><path d="M83.586,205.782c-0.006,0-0.012,0-0.018,0c-3.998-0.011-9.333-5.584-14.492-10.975 c-2.251-2.352-4.377-4.572-6.198-6.104c-2.125-1.788-4.324-2.972-6.45-4.117c-5.115-2.755-9.532-5.134-9.306-14.478 c0.232-9.597,5.151-19.718,13.158-27.075c6.987-6.421,15.482-9.834,23.32-9.359c4.632,0.279,36.285,31.944,36.417,36.432 c0.192,6.517-5.597,9.84-11.196,13.055c-2.618,1.503-5.325,3.057-7.432,4.926c-2.435,2.159-4.539,5.17-6.573,8.082 C91.362,201.112,88.098,205.782,83.586,205.782z M82.15,134.631c-7.171,0-14.818,3.281-21.193,9.14 c-7.812,7.178-12.609,17.032-12.834,26.362c-0.211,8.731,3.757,10.868,8.781,13.574c2.17,1.169,4.415,2.378,6.619,4.231 c1.862,1.566,4.006,3.807,6.276,6.178c4.781,4.995,10.2,10.656,13.773,10.666c0.004,0,0.01,0,0.014,0 c3.992,0.001,7.11-4.462,10.411-9.187c2.067-2.959,4.206-6.02,6.729-8.257c2.184-1.937,4.936-3.517,7.597-5.045 c5.589-3.209,10.869-6.24,10.694-12.158c-0.119-4.056-31.287-35.21-35.478-35.463C83.079,134.646,82.615,134.631,82.15,134.631z M83.85,198.875c-0.014,0-0.027,0-0.042,0c-5.239-0.048-14.005-5.857-19.92-10.817c-6.296-5.28-13.084-12.681-13.254-17.614 c-0.276-7.989,4.28-17.354,11.891-24.44c6.753-6.287,14.529-9.476,21.34-8.754l0,0c3.479,0.37,12.002,7.418,18.905,14.239 c6.767,6.688,14.056,15.167,14.221,18.915c0.142,3.217-3.637,7.836-6.833,11.146C102.405,189.579,89.249,198.874,83.85,198.875z M81.928,138.147c-6.066,0-12.785,3.06-18.722,8.587c-7.405,6.895-11.839,15.966-11.573,23.674 c0.131,3.795,5.194,10.422,12.898,16.883c7.505,6.294,15.255,10.547,19.286,10.584c0.011,0,0.023,0,0.034,0 c4.625,0.001,17.276-8.41,25.589-17.021c4.324-4.479,6.651-8.175,6.553-10.406c-0.262-5.945-25.868-31.528-32.233-32.205l0,0 C83.157,138.18,82.546,138.147,81.928,138.147z M84.772,194.269c-0.141,0-0.28-0.003-0.418-0.008 c-9.615-0.375-29.187-12.977-29.891-23.097l0,0c-0.456-6.55,2.752-13.827,8.8-19.969c6.318-6.415,14.632-10.327,21.137-9.978 c8.114,0.441,29.53,23.185,29.884,29.885c0.144,2.721-1.939,6.411-5.864,10.391C102.15,187.851,91.698,194.269,84.772,194.269z M83.563,142.195c-6.123,0-13.714,3.738-19.587,9.702c-5.847,5.937-8.951,12.934-8.515,19.196l0,0 c0.66,9.494,19.854,21.813,28.932,22.167c6.634,0.295,17.07-6.137,23.316-12.47c3.671-3.723,5.704-7.234,5.577-9.636 c-0.326-6.171-21.286-28.523-28.939-28.939C84.088,142.202,83.827,142.195,83.563,142.195z M85.817,191.501 c-0.224,0-0.444-0.005-0.662-0.016c-9.555-0.458-25.28-9.277-26.615-19.278c-0.711-5.329,1.932-11.592,7.253-17.184 c5.876-6.176,13.685-10.013,19.428-9.524l0,0c8.515,0.709,26.166,18.37,26.602,26.615c0.154,2.924-1.479,6.191-4.724,9.452 C101.451,187.241,92.259,191.501,85.817,191.501z M84.214,146.458c-5.358,0-12.332,3.617-17.696,9.254 c-5.111,5.372-7.658,11.336-6.986,16.362c1.008,7.551,13.638,17.835,25.672,18.413c6.196,0.295,15.517-3.931,21.186-9.626 c3.04-3.055,4.573-6.062,4.434-8.694c-0.408-7.731-17.692-25.006-25.686-25.672C84.836,146.47,84.527,146.458,84.214,146.458z M86.558,190.102c-0.137,0-0.273-0.001-0.409-0.004c-4.451-0.098-10.075-2.024-14.677-5.027c-5.218-3.405-8.302-7.543-8.686-11.652 l0,0c-0.479-5.139,2.163-11.159,7.067-16.104c4.985-5.026,11.09-7.758,16.349-7.316c8.963,0.759,22.701,14.5,23.332,23.338 c0.209,2.931-1.022,5.891-3.562,8.559C101.474,186.621,93.201,190.102,86.558,190.102z M63.783,173.324 c0.788,8.453,14.111,15.592,22.389,15.773c5.539,0.143,14.225-2.796,19.077-7.893c2.374-2.494,3.48-5.118,3.289-7.799 c-0.606-8.486-13.806-21.683-22.419-22.412c-4.963-0.418-10.776,2.205-15.555,7.024C65.865,162.756,63.331,168.478,63.783,173.324z M87.421,189.642c-0.062,0-0.122,0-0.183-0.001c-7.537-0.074-19.564-6.497-20.102-14.878c-0.301-4.697,1.92-9.924,5.941-13.981 c4.083-4.12,9.387-6.423,14.192-6.157c8.789,0.481,19.486,11.175,20.08,20.073c0.205,3.069-0.868,5.871-3.188,8.326 C99.852,187.586,92.509,189.642,87.421,189.642z M86.515,155.604c-4.335,0-9.042,2.163-12.727,5.882 c-3.823,3.857-5.937,8.798-5.654,13.213c0.503,7.853,11.942,13.872,19.113,13.942c5.037,0.068,12.215-2.1,16.188-6.304 c2.121-2.245,3.102-4.793,2.917-7.573c-0.555-8.315-10.928-18.691-19.136-19.142l0,0C86.983,155.609,86.75,155.604,86.515,155.604z M89.019,189.662c-0.222,0-0.443-0.001-0.665-0.002c-6.908-0.039-16.169-1.481-16.835-13.505l0,0 c-0.228-4.1,1.323-8.136,4.366-11.364c3.279-3.479,7.825-5.485,12.47-5.503c0.022,0,0.044,0,0.066,0 c4.474,0,8.678,1.736,11.845,4.895c3.185,3.176,4.936,7.418,4.931,11.946c-0.004,4.58-1.08,7.873-3.288,10.066 C98.779,189.304,93.87,189.662,89.019,189.662z M88.42,160.288c-0.021,0-0.042,0-0.062,0c-4.373,0.017-8.654,1.908-11.747,5.189 c-2.853,3.026-4.308,6.799-4.096,10.623l0,0c0.478,8.627,5.364,12.5,15.843,12.56c4.864,0.023,9.844-0.194,12.844-3.175 c2.01-1.995,2.988-5.057,2.993-9.358c0.004-4.26-1.643-8.25-4.637-11.236C96.581,161.921,92.627,160.288,88.42,160.288z M89.865,189.706c-0.148,0-0.295-0.001-0.441-0.002c-5.63-0.053-13.162-1.375-13.566-12.213c-0.127-3.407,1.145-6.692,3.583-9.248 c2.598-2.723,6.236-4.306,9.983-4.342l0,0c3.591-0.002,7.031,1.35,9.6,3.899c2.574,2.556,3.986,5.99,3.977,9.673 c-0.011,4.219-0.998,7.239-3.017,9.234C97.349,189.312,93.257,189.706,89.865,189.706z M89.434,164.901 c-3.478,0.034-6.857,1.504-9.27,4.032c-2.25,2.358-3.425,5.385-3.308,8.521c0.288,7.702,4.167,11.172,12.577,11.25 c3.278,0.023,7.36-0.25,9.847-2.707c1.82-1.799,2.71-4.587,2.72-8.525c0.009-3.413-1.298-6.596-3.681-8.961 C95.942,166.15,92.758,164.897,89.434,164.901L89.434,164.901z M90.598,189.318c-0.072,0-0.144,0-0.216-0.001 c-6.681-0.078-10.146-3.655-10.298-10.631l0,0c-0.058-2.655,0.928-5.172,2.777-7.088c1.942-2.012,4.683-3.188,7.52-3.227 c2.75-0.051,5.34,1.007,7.292,2.94c1.957,1.938,3.028,4.554,3.018,7.365c-0.013,3.629-0.935,6.37-2.738,8.146 C96.272,188.48,93.798,189.318,90.598,189.318z M90.521,169.371c-0.042,0-0.084,0-0.127,0.001c-2.572,0.035-5.056,1.1-6.814,2.921 c-1.662,1.723-2.549,3.985-2.497,6.372l0,0c0.14,6.424,3.185,9.581,9.31,9.652c3.05,0.051,5.337-0.707,6.858-2.206 c1.606-1.582,2.427-4.084,2.439-7.438c0.009-2.541-0.957-4.903-2.722-6.65C95.24,170.311,92.954,169.371,90.521,169.371z M91.25,188.047c-0.032,0-0.063-0.001-0.095-0.001c-3.358-0.04-6.968-2.267-7.03-8.394c-0.038-3.827,3.115-6.986,7.029-7.041l0,0 c1.914-0.01,3.648,0.687,4.981,2.007c1.337,1.323,2.069,3.11,2.061,5.031c-0.011,2.831-0.808,5.106-2.305,6.579 C94.683,187.419,93.08,188.046,91.25,188.047z M91.168,173.611c-3.365,0.047-6.076,2.753-6.043,6.031 c0.046,4.591,2.305,7.358,6.042,7.403c1.569-0.011,2.988-0.51,4.023-1.529c1.302-1.282,1.996-3.312,2.006-5.871 c0.007-1.65-0.62-3.184-1.765-4.317C94.291,174.198,92.776,173.614,91.168,173.611L91.168,173.611z M91.701,185.436 c-0.009,0-0.018,0-0.026,0c-2.173-0.02-3.755-2.18-3.764-5.139v0.001c-0.006-2.059,1.682-3.749,3.763-3.77 c0.996-0.016,1.956,0.375,2.669,1.084c0.714,0.71,1.106,1.663,1.103,2.686c-0.005,1.744-0.533,3.224-1.487,4.166 C93.316,185.1,92.536,185.436,91.701,185.436z M91.711,177.528c-0.009,0-0.019,0-0.028,0c-1.534,0.015-2.777,1.256-2.773,2.766 v0.001c0.007,2.385,1.173,4.127,2.772,4.141c0.006,0,0.012,0,0.017,0c0.566,0,1.104-0.236,1.556-0.683 c0.763-0.755,1.186-1.982,1.19-3.459c0.002-0.752-0.285-1.452-0.808-1.972C93.123,177.81,92.439,177.528,91.711,177.528z" fill="#808285"/></g><g id="change2_1"><path d="M225.171,96.075c-6.803-4.179-13.837-8.499-18.024-13.57c-3.544-4.292-6.485-9.726-9.598-15.479 c-7.343-13.568-14.933-27.596-31.323-27.596c-0.007,0-0.016,0-0.023,0c-14.508,0.012-22.598,13.927-30.421,27.384 c-4.011,6.899-7.8,13.417-12.295,17.802c-4.035,3.937-9.821,7.193-15.947,10.64c-12.312,6.929-25.044,14.093-24.899,27.743 c0.222,20.809,9.533,41.954,25.547,58.016c16.054,16.103,37.2,25.412,58.014,25.543c0.138,0.001,0.271,0.001,0.409,0.001 c25.372,0,32.126-14.922,40.661-33.784l1.203-2.654c3.652-8.021,12.044-14.608,20.16-20.978 c10.377-8.145,20.178-15.837,20.328-26.142C249.137,110.794,236.953,103.312,225.171,96.075z M228.015,148.355 c-8.21,6.443-16.699,13.106-20.452,21.351l-1.204,2.656c-8.713,19.256-15.017,33.196-39.737,33.196c-0.137,0-0.278,0-0.416-0.001 c-20.552-0.129-41.441-9.332-57.312-25.249c-15.831-15.878-25.036-36.771-25.255-57.32c-0.139-13.058,12.33-20.075,24.389-26.861 c6.185-3.48,12.026-6.767,16.155-10.795c4.593-4.481,8.415-11.055,12.462-18.016c7.682-13.212,15.625-26.875,29.558-26.886 c0.008,0,0.014,0,0.022,0c15.793,0,23.242,13.763,30.444,27.072c3.137,5.797,6.101,11.273,9.706,15.64 c4.293,5.2,11.4,9.564,18.272,13.786c11.544,7.09,23.481,14.422,23.312,26.059C247.818,132.813,238.199,140.362,228.015,148.355z M205.143,83.039c-2.268-3.124-4.383-6.65-6.622-10.385c-7.36-12.271-15.694-26.169-31.393-26.169c-0.103,0-0.208,0.001-0.312,0.002 c-13.24,0.154-21.942,13.053-29.62,24.433c-3.537,5.242-6.877,10.193-10.455,13.757c-3.415,3.402-8.081,6.54-13.021,9.862 c-11.228,7.55-22.838,15.358-22.911,27.958c-0.108,18.697,9.304,38.988,25.178,54.279c14.461,13.93,32.056,21.784,48.623,21.784 c0.746,0,1.492-0.017,2.233-0.048c19.809-0.856,27.398-14.6,36.185-30.512c0.54-0.978,1.085-1.965,1.638-2.957 c2.603-4.674,6.99-9.673,11.635-14.966c8.059-9.183,16.393-18.678,16.22-27.588c-0.196-10.068-9.007-19.316-17.529-28.26 C211.265,90.317,207.743,86.621,205.143,83.039z M215.551,149.418c-4.681,5.334-9.103,10.372-11.757,15.139 c-0.553,0.993-1.099,1.981-1.639,2.96c-8.642,15.648-16.104,29.163-35.353,29.995c-16.937,0.743-35.203-7.089-50.12-21.457 c-15.68-15.104-24.978-35.124-24.872-53.553c0.07-12.071,11.457-19.729,22.469-27.134c4.981-3.349,9.686-6.513,13.169-9.983 c3.646-3.632,7.013-8.623,10.578-13.906c7.909-11.723,16.086-23.844,28.803-23.993c0.104-0.001,0.205-0.002,0.308-0.002 c15.122,0,22.953,13.056,30.526,25.684c2.251,3.753,4.377,7.298,6.67,10.458c2.64,3.636,6.184,7.355,9.936,11.293 c8.39,8.805,17.065,17.91,17.253,27.589C231.688,131.031,223.484,140.378,215.551,149.418z M203.932,83.482 c-0.957-1.448-1.927-2.971-2.922-4.533c-7.43-11.668-16.66-26.162-32.201-26.162c-0.143,0-0.287,0.001-0.431,0.003 c-12.284,0.21-21.191,11.661-29.048,21.763c-2.96,3.806-5.757,7.401-8.571,10.226c-2.952,2.963-6.559,5.746-10.378,8.691 c-9.906,7.641-20.149,15.542-20.455,27.768c-0.413,16.531,8.25,34.882,23.172,49.089c12.973,12.352,28.624,19.488,42.456,19.488 c0.965,0,1.923-0.034,2.87-0.104c15.945-1.184,24.848-14.12,34.035-29.632c1.429-2.413,3.174-5.102,5.021-7.947 c6.689-10.305,14.271-21.984,14.025-30.895c-0.321-11.665-9.624-25.733-17.099-37.037L203.932,83.482z M206.642,151.589 c-1.853,2.854-3.603,5.551-5.043,7.981c-9.042,15.267-17.785,27.997-33.249,29.144c-14.239,1.062-30.885-6.089-44.562-19.109 c-14.721-14.016-23.268-32.087-22.862-48.34c0.293-11.75,10.345-19.504,20.065-27.001c3.845-2.966,7.478-5.768,10.475-8.777 c2.858-2.869,5.673-6.487,8.652-10.318c7.72-9.925,16.47-21.175,28.277-21.377c0.143-0.002,0.283-0.004,0.425-0.004 c14.978,0,23.67,13.647,31.346,25.699c0.998,1.566,1.971,3.095,2.931,4.547l0.476,0.719c7.404,11.197,16.62,25.133,16.933,36.513 C220.743,129.865,212.925,141.91,206.642,151.589z M170.674,58.511c-11.713,0.287-20.339,9.92-28.681,19.237 c-2.256,2.521-4.388,4.901-6.557,7.068c-2.071,2.069-4.422,4.129-6.911,6.309c-8.756,7.67-18.681,16.364-18.749,28.293 c-0.086,15.222,7.719,31.714,20.88,44.116c11.481,10.819,25.038,16.876,37.586,16.876c0.829,0,1.657-0.026,2.477-0.08 c8.882-0.579,19.581-9.524,29.354-24.544c8.299-12.755,14.375-27.699,14.775-36.342c0.594-12.827-10.844-36.751-23.996-50.193 C183.829,62.073,176.826,58.356,170.674,58.511z M207.714,101.176c0.338,1.339,0.624,2.711,0.861,4.113 c0.038,0.681,0.06,1.376,0.05,2.102c-0.187,12.655-9.947,22.162-22.726,22.162c-0.041,0-0.083,0-0.123,0 c-12.173-0.058-22.112-9.997-22.156-22.156c-0.021-5.884,2.803-12.033,7.556-16.449c3.976-3.694,8.795-5.749,13.395-5.749 c0.39,0,0.779,0.015,1.165,0.044c6.095,0.471,15.07,2.484,19.766,9.802C206.336,97.096,207.076,99.152,207.714,101.176z M204.32,89.568c-0.039-0.048-0.082-0.095-0.121-0.143c-0.099-0.167-0.205-0.328-0.306-0.493c-0.275-0.549-0.572-1.087-0.86-1.63 C203.471,88.054,203.901,88.809,204.32,89.568z M203.064,89.659c0.289,0.584,0.569,1.17,0.843,1.759 c-3.553-3.646-9.198-6.485-18.096-7.173c-5.22-0.406-10.8,1.772-15.317,5.969c-4.953,4.603-7.897,11.027-7.875,17.186 c0.046,12.706,10.432,23.091,23.151,23.152c0.043,0,0.085,0,0.128,0c11.961-0.001,21.384-7.986,23.346-19.164 c0.01,0.186,0.025,0.37,0.033,0.557c-1.617,13.859-11.415,27.385-26.181,27.384c-0.037,0-0.077,0-0.114,0 c-7.61-0.036-15.312-3.467-21.129-9.411c-5.573-5.694-8.7-13.088-8.579-20.286c0.125-7.468,4.716-16.322,11.695-22.556 c5.269-4.706,11.022-7.235,16.377-7.235c0.533,0,1.062,0.025,1.585,0.075C190.499,80.644,197.974,83.863,203.064,89.659z M200.263,85.554c-4.533-3.629-10.392-5.976-17.234-6.634c-6.069-0.584-12.72,2.047-18.724,7.409 c-7.177,6.411-11.899,15.551-12.029,23.285c-0.125,7.463,3.105,15.118,8.864,21.002c6.003,6.134,13.963,9.673,21.839,9.711 c0.04,0,0.079,0,0.119,0c12.593,0,21.705-9.42,25.486-20.712c-3.035,14.414-14.63,29.145-28.74,29.747 c-8.988,0.392-18.233-3.314-25.346-10.146c-7.579-7.279-11.912-17.16-11.889-27.109c0.02-8.457,5.355-18.672,13.924-26.659 c7.219-6.728,15.404-10.638,22.16-10.638c0.384,0,0.764,0.013,1.139,0.039C188.516,75.44,195.357,79.578,200.263,85.554z M179.899,73.851c-7.241-0.494-16.221,3.57-24.048,10.866c-8.765,8.169-14.222,18.664-14.242,27.388 c-0.023,10.221,4.421,20.365,12.196,27.832c6.963,6.688,15.92,10.453,24.764,10.453c0.439,0,0.879-0.009,1.318-0.027 c12.013-0.513,22.257-10.896,27.24-22.824c-1.652,5.26-4.158,10.618-7.311,15.414c-6.658,10.129-14.901,16.001-23.212,16.534 c-10.219,0.653-21.104-3.729-29.874-12.027c-9.435-8.928-15.006-21.181-14.902-32.776c0.083-9.175,7.138-21.599,17.975-31.652 c9.409-8.729,19.424-13.659,26.799-13.161c7.086,0.469,14.38,4.372,20.283,10.81C192.331,76.836,186.655,74.311,179.899,73.851z M176.669,68.873c-7.658-0.502-17.939,4.514-27.545,13.425c-11.029,10.231-18.21,22.94-18.295,32.377 c-0.106,11.868,5.581,24.396,15.214,33.512c8.381,7.932,18.674,12.365,28.546,12.365c0.695,0,1.389-0.022,2.08-0.066 c8.631-0.554,17.148-6.585,23.983-16.983c5.95-9.051,9.663-20.095,9.69-28.821c0.001-0.262-0.01-0.526-0.013-0.789 c0.002-0.048,0.007-0.096,0.009-0.144c0.101,1.192,0.164,2.349,0.144,3.417c-0.153,8.391-4.814,21.175-11.598,31.814 c-7.828,12.274-17.095,19.767-25.425,20.556c-10.858,1.027-22.406-3.394-32.529-12.451c-11.971-10.711-19.551-26.006-19.782-39.917 c-0.144-8.672,7.311-21.404,19.457-33.228c11.75-11.438,24.669-18.945,32.913-19.123c0.142-0.003,0.283-0.005,0.424-0.005 c6.138,0,12.148,2.89,17.873,8.595c1.475,1.47,2.88,3.094,4.214,4.827C190.432,72.606,183.754,69.342,176.669,68.873z M192.518,72.697c-6.056-6.036-12.473-9.009-19.023-8.882c-17.726,0.384-53.679,33.415-53.348,53.367 c0.235,14.181,7.943,29.755,20.116,40.646c9.348,8.363,19.913,12.853,30.086,12.853c1.073,0,2.142-0.05,3.205-0.15 c19.882-1.883,37.628-36.936,37.929-53.347c0.05-2.716-0.294-5.868-0.964-9.238c0.003-2.35-0.238-4.604-0.697-6.748 c2.713,6.883,4.252,13.354,4.027,18.201c-0.791,17.077-23.858,58.674-43.196,59.934c-12.943,0.831-27.272-5.181-39.311-16.525 c-12.963-12.216-20.651-28.434-20.566-43.383c0.065-11.479,9.81-20.015,18.407-27.547c2.502-2.191,4.865-4.261,6.959-6.354 c2.188-2.186,4.329-4.577,6.595-7.108c8.2-9.158,16.679-18.628,27.96-18.904c0.113-0.003,0.227-0.004,0.341-0.004 c5.812,0,12.406,3.604,19.098,10.443c1.349,1.379,2.678,2.874,3.98,4.451C193.59,73.822,193.065,73.242,192.518,72.697z M188.037,89.998c-4.494-0.07-8.621,1.574-11.583,4.65c-2.824,2.931-4.253,6.831-4.027,10.98 c0.496,9.082,6.893,15.579,15.271,15.579c0.113,0,0.228-0.001,0.341-0.003c5.443-0.114,11.316-2.686,14.962-6.551 c2.563-2.718,3.855-5.854,3.734-9.07C206.397,96.58,196.61,90.144,188.037,89.998z M205.736,105.619 c0.11,2.942-1.087,5.828-3.462,8.347c-3.471,3.68-9.066,6.129-14.255,6.237c-8.007,0.173-14.121-5.985-14.593-14.63 c-0.211-3.869,1.12-7.502,3.749-10.231c2.706-2.809,6.447-4.346,10.562-4.346c0.094,0,0.189,0.001,0.284,0.002 C196.145,91.136,205.418,97.175,205.736,105.619z M181.487,104.418c0.18,4.602,3.581,8.033,7.934,8.033c0.041,0,0.083,0,0.125-0.001 c3.25-0.049,7.318-1.793,9.465-4.057c1.187-1.251,1.786-2.639,1.734-4.014c-0.181-4.748-6.861-7.979-11.2-8.032 c-2.243-0.006-4.369,0.821-5.896,2.39C182.17,100.253,181.403,102.271,181.487,104.418z M189.434,97.346c0.032,0,0.064,0,0.097,0 c3.914,0.048,10.062,3.106,10.214,7.07c0.042,1.115-0.449,2.221-1.46,3.288c-1.981,2.089-5.745,3.699-8.754,3.745 c-0.037,0-0.072,0.001-0.108,0.001c-3.804,0-6.777-3.021-6.936-7.072c-0.073-1.87,0.594-3.626,1.878-4.944 C185.677,98.085,187.474,97.346,189.434,97.346z" fill="#BCBEC0"/></g><g id="change3_1"><path d="M135.358,43.388c-1.513-0.696-3.054-1.406-4.618-2.141c-7.96-3.74-14.491-12.228-20.808-20.436 c-8.174-10.623-15.895-20.656-26.362-20.81C71.175-0.202,63.734,12.258,56.546,24.285c-4.313,7.216-8.387,14.033-13.43,18.289 c-4.338,3.662-9.957,6.619-15.906,9.75C13.837,59.363,0.01,66.642,0,82.757c-0.01,15.763,13.906,21.371,27.363,26.794 c6.833,2.754,13.287,5.354,17.907,9.187c5.589,4.637,9.597,12.981,13.473,21.051c6.037,12.569,12.279,25.567,24.818,25.652 c0.073,0,0.145,0.001,0.218,0.001c20.161,0,43.006-18.762,58.179-31.223c16.81-13.806,25.043-30.638,25.17-51.459 C167.278,58.079,153.192,51.596,135.358,43.388z M141.284,133.479c-15.025,12.339-37.702,30.964-57.505,30.964 c-0.07,0-0.141-0.001-0.211-0.001c-11.914-0.08-18.019-12.792-23.923-25.086c-3.922-8.166-7.978-16.61-13.735-21.387 c-4.74-3.932-11.265-6.561-18.171-9.345C14.587,103.325,0.991,97.845,1,82.758C1.009,67.246,14.565,60.11,27.676,53.21 c5.998-3.157,11.664-6.139,16.084-9.871c5.171-4.365,9.479-11.571,13.644-18.541C64.397,13.097,71.627,1.001,83.308,1.001 c0.083,0,0.166,0,0.249,0.002c9.984,0.146,17.562,9.994,25.584,20.419c6.389,8.302,12.995,16.888,21.175,20.731 c1.566,0.736,3.11,1.446,4.625,2.144c17.506,8.057,31.334,14.421,31.187,38.458C166.001,103.26,157.888,119.841,141.284,133.479z M159.112,81.926c-0.938-18.399-13.583-25.461-28.226-33.639c-1.703-0.952-3.431-1.917-5.166-2.915 c-4.645-2.671-9.62-7.157-14.887-11.905c-9.135-8.236-18.579-16.749-27.482-16.749c-0.087,0-0.174,0.001-0.26,0.002 c-10.099,0.19-19.333,9.275-28.264,18.062c-3.894,3.831-7.572,7.45-11.125,10.104c-3.248,2.426-7.025,4.643-11.025,6.99 C20.853,58.817,7.45,66.684,7.088,81.94c-0.327,13.799,13.137,19.669,25.015,24.849c5.083,2.216,9.883,4.31,13.413,6.867 c4.452,3.225,8.407,8.29,12.595,13.652c7.16,9.167,14.563,18.647,24.977,18.92c0.373,0.01,0.748,0.015,1.125,0.015 c18.2,0,41.844-11.31,57.953-27.821C153.691,106.609,159.709,93.647,159.112,81.926z M141.45,117.724 c-16.262,16.669-40.217,27.998-58.336,27.504c-9.942-0.261-17.198-9.552-24.215-18.536c-4.233-5.419-8.231-10.539-12.796-13.846 c-3.618-2.621-8.466-4.735-13.6-6.974C20.347,100.572,7.777,95.09,8.088,81.963C8.436,67.265,21.017,59.88,33.184,52.74 c4.024-2.362,7.825-4.593,11.118-7.052c3.607-2.694,7.309-6.336,11.228-10.192c8.791-8.649,17.88-17.593,27.581-17.775 c8.571-0.172,17.974,8.303,27.054,16.489c5.308,4.785,10.321,9.305,15.058,12.03c1.739,1,3.471,1.967,5.178,2.921 c14.383,8.032,26.805,14.969,27.714,32.816C158.696,93.417,152.779,106.112,141.45,117.724z M122.667,48.994l-1.836-1.111 c-2.348-1.425-4.975-3.16-7.756-4.998c-9.801-6.475-21.965-14.509-30.779-14.509c-0.127,0-0.253,0.002-0.378,0.005 C70.424,28.689,56.275,38.26,44.906,45.95l-0.681,0.461c-1.861,1.258-3.89,2.525-6.038,3.867 C27.166,57.161,13.449,65.729,13.47,79.919c0.019,12.278,12.166,18.266,22.883,23.548c3.39,1.671,6.592,3.249,9.166,4.917 c3.346,2.169,6.675,4.913,10.2,7.817c8.208,6.764,16.694,13.757,26.028,13.756c0.063,0,0.127,0,0.19-0.001 c17.974-0.184,45.932-10.056,59.761-25.685c6.732-7.609,9.657-15.822,8.692-24.409C148.688,64.716,135.46,56.723,122.667,48.994z M140.948,103.608c-13.647,15.424-41.262,25.167-59.021,25.348c-9.072,0.077-17.447-6.832-25.572-13.527 c-3.547-2.923-6.898-5.684-10.292-7.884c-2.623-1.7-5.851-3.291-9.267-4.975C26.339,97.416,14.488,91.575,14.47,79.917 C14.45,66.283,27.342,58.23,38.717,51.126c2.156-1.346,4.191-2.618,6.068-3.887l0.681-0.46 c11.261-7.618,25.276-17.098,36.479-17.397c0.118-0.003,0.237-0.005,0.356-0.005c8.509,0,20.534,7.943,30.223,14.344 c2.79,1.843,5.425,3.583,7.789,5.018l1.837,1.112c12.585,7.604,25.599,15.467,27.245,30.124 C150.328,88.268,147.485,96.22,140.948,103.608z M80.24,35.866c-10.974-0.545-37.489,10.825-51.667,24.419 c-6.197,5.943-9.315,11.544-9.269,16.649c0.034,3.674,2.552,7.94,7.484,12.68c13.604,13.074,42.477,26.629,53.085,26.629 c0.121,0,0.24-0.001,0.356-0.005c8.621-0.263,19.229-2.146,28.376-5.035c8.338-2.634,19.722-7.455,26.601-15.464 c4.772-5.557,6.762-11.906,5.915-18.869C138.839,58.13,94.717,36.606,80.24,35.866z M46.554,49.846 c0.822-0.47,1.67-0.914,2.544-1.33c-2.147,2.44-3.265,5.391-3.308,8.797c-0.046,3.64,1.152,6.712,3.562,9.132 c5.517,5.541,15.826,6.037,19.308,6.037c0.102,0,0.198,0,0.288-0.001c6.652-0.055,15.544-1.15,20.125-6.058 c2.229-2.389,3.247-5.462,3.024-9.135c-0.398-6.549-4.679-10.577-9.834-12.925c8.061,2.079,17.106,6.64,18.476,16.652 c0.543,3.966-0.27,7.271-2.416,9.822c-5.537,6.583-18.905,7.065-26.086,7.325l-1.227,0.045c-8.572,0.335-19.795-1.805-25.526-7.347 c-2.783-2.692-4.182-6.026-4.159-9.91c0.024-4.134,1.615-7.724,4.729-10.668C46.214,50.132,46.388,49.992,46.554,49.846z M56.996,45.584c3.644-1.04,7.317-1.726,10.625-2.112c9.697,0.417,14.101,3.792,14.24,10.924c0.162,8.306-6.542,9.716-14.657,10.604 c-5.07,0.554-9.086-0.371-11.609-2.674c-2.013-1.838-3.001-4.506-2.939-7.93c0.061-3.342,1.057-5.953,2.961-7.759 C56.029,46.246,56.499,45.904,56.996,45.584z M91.099,57.35c0.206,3.388-0.722,6.212-2.757,8.392 c-4.339,4.648-12.946,5.687-19.402,5.74c-3.064,0.031-13.476-0.315-18.879-5.742c-2.212-2.222-3.313-5.053-3.271-8.414 c0.044-3.525,1.317-6.527,3.782-8.922c0.395-0.384,0.821-0.738,1.26-1.079c0.883-0.35,1.78-0.675,2.686-0.978 c-1.831,1.969-2.801,4.66-2.862,8.03c-0.068,3.724,1.031,6.646,3.265,8.687c2.236,2.042,5.498,3.092,9.536,3.092 c0.914,0,1.867-0.054,2.856-0.162c8.295-0.907,15.727-2.479,15.548-11.617c-0.144-7.406-4.807-10.213-9.872-11.288 c0.123-0.002,0.253-0.008,0.374-0.009c0.098-0.001,0.197-0.001,0.298-0.001c0.351,0,0.723,0.008,1.108,0.022 C82.179,44.467,90.557,48.419,91.099,57.35z M40.325,60.945c-0.025,4.167,1.477,7.746,4.463,10.634 c5.89,5.696,16.438,7.663,24.435,7.663c0.625,0,1.235-0.012,1.826-0.035l1.224-0.045c7.336-0.265,20.993-0.758,26.815-7.68 c2.336-2.777,3.225-6.344,2.642-10.602c-1.002-7.32-5.844-11.855-11.5-14.669c1.878,0.66,3.781,1.433,5.665,2.346 c6.216,3.011,13.815,8.317,14.721,16.497c0.513,4.628-0.645,8.539-3.441,11.623c-6.894,7.605-22.188,9.039-33.812,8.884 c-10.391-0.129-37.34-4.076-37.263-20.56c0.025-5.426,2.846-9.652,7.032-12.887C41.29,54.706,40.344,57.663,40.325,60.945z M41.384,52.196c-4.109,3.578-6.26,7.902-6.283,12.8c-0.035,7.554,5.259,13.567,15.311,17.389 c7.804,2.968,17.235,4.104,22.939,4.175c0.504,0.006,1.013,0.01,1.529,0.01c11.608,0,26.196-1.677,33.036-9.222 c2.997-3.306,4.24-7.479,3.694-12.405c-0.944-8.523-8.882-14.683-17.872-18.448c2.865,1.002,5.806,2.213,8.707,3.658 c10.807,5.385,17.248,12.17,18.135,19.106c0.661,5.163-0.612,9.605-3.784,13.202c-9.163,10.394-31.733,11.517-41.027,11.465 c-11.969-0.02-44.821-5.917-44.809-24.73c0.003-5.004,1.964-9.489,5.828-13.332C38.142,54.52,39.701,53.308,41.384,52.196z M32.487,58.835c0.581-0.582,1.199-1.145,1.834-1.698c-2.879,3.576-4.355,7.618-4.358,12.058 C29.957,77.757,36.34,84.8,48.423,89.563c10.695,4.216,22.221,5.355,27.346,5.364c0.063,0,0.125,0,0.189,0 c9.534,0,32.22-1.175,41.59-11.803c3.37-3.823,4.725-8.53,4.026-13.991c-2.158-16.861-32.871-27.238-45.801-27.299 c-0.067,0-0.135,0-0.203,0c-0.598,0-1.23,0.014-1.889,0.039c-0.258-0.025-0.507-0.047-0.748-0.067 c-0.508-0.066-1.008-0.122-1.495-0.165c2.555-0.388,4.818-0.584,6.627-0.584c0.014,0,0.03,0,0.043,0 c15.108,0.026,50.222,16.245,52.364,32.276c0.761,5.694-0.776,10.77-4.568,15.086c-10.709,12.187-35.948,15.327-47.792,15.273 c-6.31-0.024-19.312-2.957-30.981-8.341c-7.973-3.68-21.352-11.441-21.38-22.086C25.736,68.178,28.003,63.323,32.487,58.835z M134.448,95.087c-6.725,7.831-17.929,12.568-26.143,15.163c-9.065,2.864-19.572,4.729-28.105,4.989 c-9.93,0.286-39.376-13.523-52.718-26.345c-4.731-4.547-7.146-8.573-7.177-11.968c-0.043-4.748,3.051-10.248,8.95-15.907 c-2.986,3.865-4.516,7.968-4.505,12.247c0.049,18.953,39.661,31.371,53.357,31.424c0.086,0,0.172,0,0.26,0 c12.111,0,37.419-3.246,48.287-15.614c3.992-4.543,5.609-9.885,4.809-15.879c-2.317-17.34-39.646-33.119-53.353-33.143 c-0.015,0-0.029,0-0.044,0c-2.931,0-7.025,0.505-11.652,1.508c-2.666,0.154-5.563,0.623-8.324,1.501 c-0.693,0.181-1.383,0.375-2.064,0.592c9.149-4.194,17.924-6.812,23.378-6.812c0.27,0,0.533,0.006,0.787,0.02 c14.26,0.729,57.708,21.796,59.939,40.126C140.941,83.664,139.03,89.752,134.448,95.087z M65.527,59.386 c0.209,0,0.42-0.006,0.634-0.019c5.156-0.298,8.08-2.831,8.022-6.949c-0.06-4.241-3.219-6.999-8.048-7.026c-0.024,0-0.048,0-0.071,0 c-4.796,0-7.926,2.752-7.983,7.026c-0.027,2.021,0.646,3.745,1.944,4.987C61.372,58.693,63.307,59.386,65.527,59.386z M66.069,46.392c0.02,0,0.04,0,0.06,0c3.37,0.019,6.992,1.616,7.054,6.04c0.067,4.806-4.407,5.783-7.08,5.938 c-2.202,0.126-4.117-0.472-5.387-1.687c-1.093-1.045-1.659-2.515-1.636-4.251C59.139,47.976,62.717,46.392,66.069,46.392z" fill="#FFF"/></g></svg>